PathFileType	4	(X/Y/Z)	C:/Users/opensim2020/Desktop/walking_exp_matlab/subject01_walking04_straight_01.trc																																																																																																																															
DataRate	CameraRate	NumFrames	NumMarkers	Units	OrigDataRate	OrigDataStartFrame	OrigNumFrames																																																																																																																											
100	100	4	43	mm	100	974	216																																																																																																																											
Frame#	Time	LFHD			RFHD			LBHD			RBHD			C7			T10			CLAV			STRN			RBAK			LSHO			LUPA			LELB			LFRM			LWRA			LWRB			LFIN			RSHO			RUPA			RELB			RFRM			RWRA			RWRB			RFIN			LASI			RASI			LPSI			RPSI			LTHI			LKNE			LTIB			LANK			LHEE			LTOE			RTHI			RKNE			RTIB			RANK			RHEE			RTOE			*39			*40			*41			*42		
		X1	Y1	Z1	X2	Y2	Z2	X3	Y3	Z3	X4	Y4	Z4	X5	Y5	Z5	X6	Y6	Z6	X7	Y7	Z7	X8	Y8	Z8	X9	Y9	Z9	X10	Y10	Z10	X11	Y11	Z11	X12	Y12	Z12	X13	Y13	Z13	X14	Y14	Z14	X15	Y15	Z15	X16	Y16	Z16	X17	Y17	Z17	X18	Y18	Z18	X19	Y19	Z19	X20	Y20	Z20	X21	Y21	Z21	X22	Y22	Z22	X23	Y23	Z23	X24	Y24	Z24	X25	Y25	Z25	X26	Y26	Z26	X27	Y27	Z27	X28	Y28	Z28	X29	Y29	Z29	X30	Y30	Z30	X31	Y31	Z31	X32	Y32	Z32	X33	Y33	Z33	X34	Y34	Z34	X35	Y35	Z35	X36	Y36	Z36	X37	Y37	Z37	X38	Y38	Z38	X39	Y39	Z39	X40	Y40	Z40	X41	Y41	Z41	X42	Y42	Z42	X43	Y43	Z43
																																																																																																																																		
163	1.62	560.41827	1668.40454	-1058.25049	573.68494	1671.80664	-943.62805	443.00803	1623.70715	-1051.91138	454.30576	1626.65466	-930.17773	402.25717	1427.75122	-1010.27185	378.45801	1132.20837	-1006.27112	547.57538	1364.18323	-1009.41809	597.41504	1212.35876	-1019.04785	355.71942	1227.42126	-937.90271	485.16602	1391.54578	-1170.6864	471.70419	1210.54236	-1262.97485	484.0274	1059.37708	-1280.73657	568.81714	981.48407	-1312.03076	694.41833	921.74042	-1303.32556	648.53986	890.03711	-1325.04395	723.10492	855.41913	-1341.72803	482.55887	1385.81189	-856.36176	413.11169	1185.62634	-765.98859	404.83707	1062.50525	-767.43536	411.97214	944.08496	-735.12433	472.95685	815.37292	-749.25739	428.22388	823.97656	-713.4364	451.80865	741.12762	-714.04688	552.64185	927.83984	-1122.73474	568.06573	935.89752	-908.08331	370.60324	941.31104	-1059.32629	382.19083	944.60748	-913.62689	488.53082	593.34613	-1179.80188	455.79044	461.24176	-1172.25793	309.08249	340.37155	-1174.5387	159.81084	179.3356	-1125.9707	119.14915	198.45401	-1071.0072	204.97195	37.84857	-1108.38318	579.2666	607.11707	-852.74713	620.83716	456.62653	-887.53162	598.12451	280.33316	-880.17426	602.65363	76.97651	-934.453	554.71722	38.18129	-985.19244	744.18317	42.85014	-939.96039	561.07166	1705.85132	-966.10339	1973.10999	1023.38434	-3101.93555	2012.54089	1021.94293	-3140.56299	NaN	NaN	NaN
164	1.63	570.50745	1669.17957	-1055.78003	583.83179	1672.40857	-941.35376	453.12363	1624.48743	-1049.6217	464.45078	1627.20093	-928.03656	412.43567	1428.48669	-1008.67267	388.59247	1133.01306	-1005.06042	557.83423	1365.04199	-1007.91553	607.74622	1213.26538	-1017.76385	366.35858	1228.08765	-936.21002	495.20132	1392.55835	-1169.08972	480.66272	1211.46228	-1261.13025	490.93649	1060.13708	-1278.06409	574.37054	980.76337	-1309.43433	699.10162	918.93884	-1301.10339	652.5498	887.97992	-1322.42981	726.41016	851.81964	-1339.323	492.9614	1386.72473	-854.90076	424.52521	1186.28711	-764.31873	416.93024	1063.22168	-765.64233	424.96399	944.90247	-733.27954	486.44846	816.38824	-747.5661	441.87692	824.96881	-711.60681	465.72098	741.96552	-712.34332	563.04749	928.92584	-1120.70801	578.26819	937.16614	-906.16974	380.96246	941.81067	-1058.16101	392.47711	945.87476	-912.57233	505.98898	593.04749	-1180.06433	475.9313	460.73657	-1173.17322	327.44104	343.49487	-1175.51233	174.49887	185.6918	-1127.34021	134.99335	207.53323	-1073.13391	211.96121	42.17618	-1107.56653	586.7641	607.55707	-851.16675	626.73645	456.2157	-886.15015	601.71338	280.16177	-879.57092	603.0141	77.0092	-934.33533	554.73688	38.30558	-984.95313	744.73914	42.35184	-940.03406	571.12933	1706.38635	-963.68176	1973.07593	1023.40588	-3101.92334	2012.55859	1022.06854	-3140.4939	NaN	NaN	NaN
165	1.64	580.59583	1670.13794	-1053.67212	593.86578	1672.97937	-939.08105	463.2381	1625.3645	-1047.6709	474.59799	1627.64563	-925.8053	422.54797	1429.31506	-1007.07471	398.66144	1133.85864	-1003.80371	568.0014	1365.82507	-1006.59283	617.8078	1214.0968	-1016.64294	376.72101	1228.92578	-934.48907	505.18588	1393.55396	-1167.58911	489.52997	1212.33105	-1259.60461	497.62976	1060.6261	-1275.29443	579.75055	979.94513	-1306.89648	703.5564	915.78473	-1298.75769	656.3335	885.71167	-1319.78479	729.4754	848.04559	-1336.68701	503.54889	1387.66907	-853.49023	435.95877	1187.02014	-762.5708	429.00421	1063.89941	-763.84863	437.89929	945.59546	-731.47125	500.29865	817.39941	-745.8985	455.46945	825.62878	-709.80096	480.0314	742.78241	-710.66156	573.18866	930.04541	-1118.85083	588.29187	938.15088	-904.3808	391.09103	942.11121	-1056.74829	402.49976	946.82764	-911.13843	522.97876	593.08276	-1179.89795	495.77353	460.44159	-1173.90649	346.44772	346.11649	-1176.64404	190.10487	192.43448	-1127.77246	151.27139	215.96133	-1074.23645	221.80116	46.88828	-1107.76184	592.81769	607.54675	-850.13287	632.16931	455.68307	-884.91388	604.64563	280.21384	-878.94867	603.1557	76.79545	-934.33563	554.76453	38.34259	-984.8363	745.09991	41.92598	-940.06244	581.17017	1707.02588	-961.30554	1973.09119	1023.38831	-3102.00366	2012.521	1021.99872	-3140.62939	NaN	NaN	NaN
166	1.65	590.60852	1671.10767	-1051.698	603.99432	1673.57593	-936.93976	473.42282	1626.31165	-1045.93396	484.2359	1628.19019	-924.30371	432.75021	1430.19153	-1005.70868	408.55981	1134.86523	-1002.38617	578.03308	1366.65198	-1005.39197	627.80151	1214.88232	-1015.65015	386.99796	1229.953	-932.68011	515.20679	1394.46875	-1166.35596	498.35016	1213.18323	-1258.3197	504.27744	1061.10059	-1272.51221	584.93915	978.70459	-1304.20654	707.83026	912.66504	-1296.48999	659.91003	883.26154	-1316.95911	732.30847	844.0722	-1333.97192	514.0686	1388.45215	-852.25739	447.39175	1187.82312	-760.76801	441.0376	1064.49609	-762.06702	450.96588	946.20801	-729.51672	514.3681	818.47009	-744.20978	469.61856	826.51147	-707.91827	494.70084	743.71063	-708.88403	583.03247	930.76666	-1117.6001	598.09509	938.88379	-902.73315	400.90836	942.19904	-1055.19373	411.82053	947.70532	-909.66052	539.33954	593.54102	-1179.7948	515.62408	460.49094	-1174.09167	366.1235	348.08527	-1177.76172	206.40794	198.97411	-1127.77612	168.44336	222.93144	-1073.5968	234.80066	51.9747	-1109.95325	598.46375	607.62463	-849.26141	637.26105	455.36923	-883.80695	607.50916	280.05322	-878.53259	603.35358	76.71643	-934.31824	554.77216	38.43081	-984.67078	745.31964	41.41963	-940.1604	591.21527	1707.68896	-958.91644	1973.07117	1023.38684	-3101.88208	2012.47021	1021.92322	-3140.70508	NaN	NaN	NaN
